<?xml version="1.0" standalone="no"?>
<!DOCTYPE svg PUBLIC "-//W3C//DTD SVG 20010904//EN"
 "http://www.w3.org/TR/2001/REC-SVG-20010904/DTD/svg10.dtd">
<svg version="1.0" xmlns="http://www.w3.org/2000/svg"
 width="1024.000000pt" height="1024.000000pt" viewBox="0 0 1024.000000 1024.000000"
 preserveAspectRatio="xMidYMid meet">
<metadata>
Created by potrace 1.14, written by Peter Selinger 2001-2017
</metadata>
<g transform="translate(0.000000,1024.000000) scale(0.100000,-0.100000)"
fill="#000000" stroke="none">
<path d="M0 5120 l0 -5120 5120 0 5120 0 0 5120 0 5120 -5120 0 -5120 0 0
-5120z m6280 4340 c262 -93 320 -106 320 -71 0 17 24 25 182 63 l183 44 205
-99 c113 -54 209 -102 213 -107 5 -4 26 -79 46 -166 l38 -159 34 -3 c19 -1
120 17 224 42 105 24 191 43 193 41 2 -2 27 -103 55 -225 l51 -221 143 -131
c79 -72 143 -132 143 -134 0 -1 -13 -122 -30 -269 -16 -147 -30 -286 -30 -311
l0 -44 43 0 c23 1 97 14 165 29 l123 28 78 -91 c292 -342 391 -461 391 -472 0
-7 -27 -99 -60 -206 -33 -106 -60 -210 -60 -230 0 -45 7 -46 125 -22 42 9 79
14 81 11 2 -2 47 -208 100 -458 l95 -454 128 -200 c70 -110 130 -204 133 -210
3 -5 -5 -125 -18 -265 -13 -140 -23 -286 -23 -325 0 -50 33 -235 118 -651
l118 -582 -119 -313 c-65 -173 -118 -327 -118 -343 l0 -29 68 6 c37 4 78 9 91
13 20 6 22 4 17 -12 -15 -49 -332 -1303 -373 -1481 -26 -111 -49 -200 -51
-199 -6 6 72 421 178 951 60 302 110 560 110 572 0 21 -5 23 -52 23 -29 0 -78
-7 -108 -15 -30 -8 -55 -13 -57 -11 -1 1 58 184 132 407 74 222 135 419 135
437 0 18 -63 299 -141 625 l-141 592 16 225 c9 124 16 256 16 293 l0 69 -126
186 -127 187 -72 315 c-40 173 -76 330 -80 348 -6 31 -9 32 -53 32 -26 -1
-112 -16 -192 -35 -80 -18 -146 -32 -148 -30 -2 2 44 161 102 353 58 193 106
362 106 377 0 20 -36 68 -137 186 l-137 159 -43 0 c-24 0 -147 -23 -274 -51
-127 -28 -233 -48 -235 -46 -3 2 16 180 41 395 25 215 45 411 45 436 0 43 -2
46 -121 160 l-122 117 -24 117 c-13 64 -26 125 -29 135 -8 26 -66 22 -262 -19
-95 -20 -176 -33 -179 -30 -3 3 -26 108 -52 233 l-46 228 -125 68 c-125 68
-125 68 -190 63 -101 -7 -104 -9 -97 -75 3 -31 9 -74 13 -95 4 -23 3 -37 -2
-34 -5 3 -189 77 -408 163 l-400 158 -505 -98 -506 -99 -180 -181 -180 -181
-146 -28 -146 -29 -111 -223 c-125 -250 -137 -294 -81 -294 20 0 45 11 69 30
35 28 74 38 427 116 l388 85 298 11 298 11 192 -190 c111 -109 290 -270 423
-380 l230 -192 261 -413 c214 -341 574 -933 622 -1026 7 -13 72 -166 145 -340
l133 -317 16 -325 c16 -305 21 -352 81 -755 55 -364 85 -530 111 -616 4 -13
-12 -21 -81 -39 -48 -12 -89 -19 -94 -14 -4 5 -119 345 -254 755 l-247 746
-120 193 c-66 106 -185 319 -264 472 -134 257 -147 287 -170 389 -14 62 -25
113 -25 115 0 2 -61 4 -136 4 l-137 0 -271 169 c-149 93 -311 201 -361 240
-49 39 -100 71 -111 71 -12 0 -53 -7 -91 -16 l-70 -15 -243 125 c-252 130
-353 166 -461 166 l-44 0 -58 -94 c-68 -112 -41 -103 -332 -111 -110 -3 -212
-8 -226 -11 -21 -4 -51 16 -178 121 l-152 127 -47 -4 c-26 -3 -130 -35 -232
-71 l-185 -67 -96 -101 -97 -101 -418 -114 c-341 -92 -486 -138 -779 -242
l-360 -129 -142 -229 c-114 -184 -142 -236 -142 -266 -1 -35 1 -38 27 -38 17
0 152 60 317 140 l287 141 477 -31 c262 -16 487 -32 501 -34 32 -6 735 -340
895 -425 503 -269 864 -484 1255 -749 366 -248 742 -533 996 -755 l111 -97 16
-108 c9 -59 59 -381 112 -717 88 -564 113 -757 73 -560 -9 44 -78 368 -152
720 l-136 640 -32 28 c-88 74 -443 337 -608 449 -630 429 -1430 868 -2185
1201 l-350 154 -480 18 -481 18 -678 -357 c-373 -196 -680 -356 -682 -354 -12
13 778 1383 825 1429 9 9 209 87 445 173 373 137 477 170 793 256 l363 98 89
94 90 95 148 52 c81 28 224 80 318 115 l170 63 172 -144 173 -145 159 8 160 7
76 118 c42 66 81 116 88 114 7 -3 100 -25 207 -51 l195 -46 226 -119 c124 -65
237 -119 250 -119 13 0 60 9 103 18 l80 18 145 -116 c81 -64 242 -178 359
-253 l213 -137 158 0 c87 0 185 -3 217 -6 l59 -6 44 -212 44 -211 133 -265
c72 -146 186 -356 252 -467 66 -112 123 -211 126 -220 2 -10 17 -57 31 -105
l26 -88 35 0 35 0 -3 213 -4 212 -118 305 c-111 288 -127 322 -283 605 -91
165 -278 489 -416 720 l-250 420 -185 155 c-102 85 -281 249 -399 364 l-213
209 -320 -7 -321 -7 -362 -80 c-199 -44 -370 -82 -380 -85 -10 -3 -108 -84
-218 -181 -110 -96 -196 -165 -189 -154 6 11 52 87 103 168 58 93 143 253 227
430 l135 282 158 38 157 37 164 185 165 185 508 122 c279 67 517 123 529 123
11 1 134 -39 274 -89z m47 -6752 c-3 -7 -5 -2 -5 12 0 14 2 19 5 13 2 -7 2
-19 0 -25z m10 -50 c-3 -8 -6 -5 -6 6 -1 11 2 17 5 13 3 -3 4 -12 1 -19z"/>
</g>
</svg>
